<mxfile host="app.diagrams.net" modified="2023-12-08T15:27:29.134Z" agent="Mozilla/5.0 (Macintosh; Intel Mac OS X 10_15_7) AppleWebKit/605.1.15 (KHTML, like Gecko) Version/16.6 Safari/605.1.15" etag="f1CRUve6x5U0Xv58asnD" version="22.1.7" type="github">
  <diagram id="3228e29e-7158-1315-38df-8450db1d8a1d" name="Page-1">
    <mxGraphModel dx="1163" dy="764" grid="1" gridSize="10" guides="1" tooltips="1" connect="1" arrows="1" fold="1" page="1" pageScale="1" pageWidth="1169" pageHeight="827" background="none" math="0" shadow="0">
      <root>
        <mxCell id="0" />
        <mxCell id="1" parent="0" />
        <mxCell id="21531" value="" style="ellipse;fillColor=#6d8764;opacity=60;strokeColor=#3A5431;html=1;fontColor=#ffffff;" parent="1" vertex="1">
          <mxGeometry x="339.5" y="308.5" width="500" height="500" as="geometry" />
        </mxCell>
        <mxCell id="21532" value="" style="ellipse;fillColor=#fa6800;opacity=60;strokeColor=#C73500;html=1;fontColor=#000000;" parent="1" vertex="1">
          <mxGeometry x="179.5" y="18.5" width="500" height="500" as="geometry" />
        </mxCell>
        <mxCell id="21533" value="" style="ellipse;fillColor=#1ba1e2;opacity=60;strokeColor=#006EAF;html=1;fontColor=#ffffff;" parent="1" vertex="1">
          <mxGeometry x="489.5" y="18.5" width="500" height="500" as="geometry" />
        </mxCell>
        <mxCell id="21534" value="Probe Dynamics" style="text;fontSize=24;align=center;verticalAlign=middle;html=1;fontColor=#050505;" parent="1" vertex="1">
          <mxGeometry x="30" y="70" width="190" height="70" as="geometry" />
        </mxCell>
        <mxCell id="21535" value="Link Budget" style="text;fontSize=24;align=center;verticalAlign=middle;html=1;fontColor=#050505;" parent="1" vertex="1">
          <mxGeometry x="940" y="50" width="190" height="70" as="geometry" />
        </mxCell>
        <mxCell id="21536" value="Probe Profile" style="text;fontSize=24;align=center;verticalAlign=middle;html=1;fontColor=#050505;" parent="1" vertex="1">
          <mxGeometry x="499.5" y="820" width="190" height="70" as="geometry" />
        </mxCell>
        <mxCell id="GAEnvp10zDDo0bYfSSqK-21540" value="Probe Total Power" style="text;html=1;align=center;verticalAlign=middle;resizable=0;points=[];autosize=1;strokeColor=none;fillColor=none;" vertex="1" parent="1">
          <mxGeometry x="525" y="310" width="120" height="30" as="geometry" />
        </mxCell>
        <mxCell id="GAEnvp10zDDo0bYfSSqK-21541" value="Probe Radius&lt;br&gt;" style="text;html=1;align=center;verticalAlign=middle;resizable=0;points=[];autosize=1;strokeColor=none;fillColor=none;" vertex="1" parent="1">
          <mxGeometry x="529.5" y="360" width="100" height="30" as="geometry" />
        </mxCell>
        <mxCell id="GAEnvp10zDDo0bYfSSqK-21542" value="Probe Length&lt;br&gt;" style="text;html=1;align=center;verticalAlign=middle;resizable=0;points=[];autosize=1;strokeColor=none;fillColor=none;" vertex="1" parent="1">
          <mxGeometry x="379.5" y="430" width="100" height="30" as="geometry" />
        </mxCell>
        <mxCell id="GAEnvp10zDDo0bYfSSqK-21543" value="Probe Mass" style="text;html=1;align=center;verticalAlign=middle;resizable=0;points=[];autosize=1;strokeColor=none;fillColor=none;" vertex="1" parent="1">
          <mxGeometry x="360" y="460" width="90" height="30" as="geometry" />
        </mxCell>
        <mxCell id="GAEnvp10zDDo0bYfSSqK-21544" value="Radioisotope Profile" style="text;html=1;align=center;verticalAlign=middle;resizable=0;points=[];autosize=1;strokeColor=none;fillColor=none;" vertex="1" parent="1">
          <mxGeometry x="520" y="340" width="130" height="30" as="geometry" />
        </mxCell>
        <mxCell id="GAEnvp10zDDo0bYfSSqK-21545" value="Europa gravity" style="text;html=1;align=center;verticalAlign=middle;resizable=0;points=[];autosize=1;strokeColor=none;fillColor=none;" vertex="1" parent="1">
          <mxGeometry x="274.5" y="80" width="100" height="30" as="geometry" />
        </mxCell>
        <mxCell id="GAEnvp10zDDo0bYfSSqK-21546" value="Ice Temperature" style="text;html=1;align=center;verticalAlign=middle;resizable=0;points=[];autosize=1;strokeColor=none;fillColor=none;" vertex="1" parent="1">
          <mxGeometry x="530" y="130" width="110" height="30" as="geometry" />
        </mxCell>
        <mxCell id="GAEnvp10zDDo0bYfSSqK-21548" value="Transmission Frequency" style="text;html=1;align=center;verticalAlign=middle;resizable=0;points=[];autosize=1;strokeColor=none;fillColor=none;" vertex="1" parent="1">
          <mxGeometry x="655" y="450" width="150" height="30" as="geometry" />
        </mxCell>
        <mxCell id="GAEnvp10zDDo0bYfSSqK-21549" value="Deliverable Mass" style="text;html=1;align=center;verticalAlign=middle;resizable=0;points=[];autosize=1;strokeColor=none;fillColor=none;" vertex="1" parent="1">
          <mxGeometry x="529.5" y="730" width="120" height="30" as="geometry" />
        </mxCell>
        <mxCell id="GAEnvp10zDDo0bYfSSqK-21550" value="Ice Salinity" style="text;html=1;align=center;verticalAlign=middle;resizable=0;points=[];autosize=1;strokeColor=none;fillColor=none;" vertex="1" parent="1">
          <mxGeometry x="540" y="160" width="80" height="30" as="geometry" />
        </mxCell>
        <mxCell id="GAEnvp10zDDo0bYfSSqK-21551" value="Eb/No Limit" style="text;html=1;align=center;verticalAlign=middle;resizable=0;points=[];autosize=1;strokeColor=none;fillColor=none;" vertex="1" parent="1">
          <mxGeometry x="830" y="100" width="90" height="30" as="geometry" />
        </mxCell>
        <mxCell id="GAEnvp10zDDo0bYfSSqK-21552" value="Transmission Bandwidth" style="text;html=1;align=center;verticalAlign=middle;resizable=0;points=[];autosize=1;strokeColor=none;fillColor=none;" vertex="1" parent="1">
          <mxGeometry x="655" y="420" width="150" height="30" as="geometry" />
        </mxCell>
        <mxCell id="GAEnvp10zDDo0bYfSSqK-21553" value="Payload Data Rate" style="text;html=1;align=center;verticalAlign=middle;resizable=0;points=[];autosize=1;strokeColor=none;fillColor=none;" vertex="1" parent="1">
          <mxGeometry x="670" y="399" width="120" height="30" as="geometry" />
        </mxCell>
        <mxCell id="GAEnvp10zDDo0bYfSSqK-21554" value="Melting Point of Ice" style="text;html=1;align=center;verticalAlign=middle;resizable=0;points=[];autosize=1;strokeColor=none;fillColor=none;" vertex="1" parent="1">
          <mxGeometry x="259.5" y="100" width="130" height="30" as="geometry" />
        </mxCell>
        <mxCell id="GAEnvp10zDDo0bYfSSqK-21555" value="Density of Ice/Water" style="text;html=1;align=center;verticalAlign=middle;resizable=0;points=[];autosize=1;strokeColor=none;fillColor=none;" vertex="1" parent="1">
          <mxGeometry x="259.5" y="120" width="130" height="30" as="geometry" />
        </mxCell>
        <mxCell id="GAEnvp10zDDo0bYfSSqK-21556" value="Water Kinematic Viscosity" style="text;html=1;align=center;verticalAlign=middle;resizable=0;points=[];autosize=1;strokeColor=none;fillColor=none;" vertex="1" parent="1">
          <mxGeometry x="244.5" y="140" width="160" height="30" as="geometry" />
        </mxCell>
        <mxCell id="GAEnvp10zDDo0bYfSSqK-21557" value="Water Thermal Difusivity" style="text;html=1;align=center;verticalAlign=middle;resizable=0;points=[];autosize=1;strokeColor=none;fillColor=none;" vertex="1" parent="1">
          <mxGeometry x="249.5" y="160" width="150" height="30" as="geometry" />
        </mxCell>
        <mxCell id="GAEnvp10zDDo0bYfSSqK-21558" value="Latent Heat of Melting" style="text;html=1;align=center;verticalAlign=middle;resizable=0;points=[];autosize=1;strokeColor=none;fillColor=none;" vertex="1" parent="1">
          <mxGeometry x="254.5" y="180" width="140" height="30" as="geometry" />
        </mxCell>
        <mxCell id="GAEnvp10zDDo0bYfSSqK-21559" value="Heater head power" style="text;html=1;align=center;verticalAlign=middle;resizable=0;points=[];autosize=1;strokeColor=none;fillColor=none;" vertex="1" parent="1">
          <mxGeometry x="390" y="400" width="130" height="30" as="geometry" />
        </mxCell>
        <mxCell id="GAEnvp10zDDo0bYfSSqK-21560" value="Comms system power" style="text;html=1;align=center;verticalAlign=middle;resizable=0;points=[];autosize=1;strokeColor=none;fillColor=none;" vertex="1" parent="1">
          <mxGeometry x="650" y="380" width="140" height="30" as="geometry" />
        </mxCell>
      </root>
    </mxGraphModel>
  </diagram>
</mxfile>
